<svg xmlns="http://www.w3.org/2000/svg" viewBox="0 0 512 512" width="512" height="512"><rect width="512" height="512" fill="#251B12"/><g transform="translate(67.5,45.8) scale(1.45)"><g fill="none" stroke-linecap="round" stroke-linejoin="round"><path d="M 207.27 111.29 L 209.23 113.64 L 211.13 116.04 L 212.95 118.51 L 214.70 121.02 L 216.37 123.59 L 217.96 126.20 L 219.48 128.86 L 220.91 131.57 L 222.26 134.32 L 223.53 137.10 L 224.71 139.93 L 225.81 142.79 L 226.83 145.68 L 227.75 148.60 L 228.59 151.54 L 229.34 154.51 L 230.00 157.50 L 230.57 160.51 L 231.05 163.53 L 231.44 166.57 L 231.74 169.62 L 231.94 172.67 L 232.05 175.73 L 232.08 178.80 L 232.01 181.86 L 231.85 184.92 L 231.59 187.97 L 231.25 191.01 L 230.81 194.04 L 230.29 197.06 L 229.67 200.06 L 228.96 203.04 L 228.17 205.99 L 227.28 208.93 L 226.31 211.83 L 225.25 214.70 L 224.11 217.55 L 222.88 220.35 L 221.57 223.12 L 220.17 225.84 L 218.70 228.53 L 217.14 231.16 L 215.51 233.75 L 213.80 236.29 L 212.01 238.78 L 210.15 241.21 L 208.22 243.59 L 206.22 245.91 L 204.15 248.16 L 202.01 250.35 L 199.80 252.48 L 197.54 254.54 L 195.21 256.53 L 192.83 258.45 L 190.39 260.30 L 187.89 262.08 L 185.34 263.78 L 182.74 265.40 L 180.10 266.94 L 177.41 268.40 L 174.68 269.78 L 171.90 271.08 L 169.09 272.30 L 166.25 273.43 L 163.37 274.47 L 160.46 275.43 L 157.52 276.30 L 154.56 277.08 L 151.58 277.77 L 148.58 278.38 L 145.56 278.89 L 142.52 279.31 L 139.48 279.64 L 136.43 279.88 L 133.37 280.02 L 130.31 280.08 L 127.24 280.04 L 124.18 279.91 L 121.13 279.69 L 118.08 279.38 L 115.05 278.98 L 112.03 278.49 L 109.02 277.90 L 106.03 277.23 L 103.07 276.46 L 100.13 275.61 L 97.21 274.67 L 94.33 273.64 L 91.47 272.53 L 88.65 271.33 L 85.87 270.05 L 83.13 268.69 L 80.43 267.24 L 77.78 265.71 L 75.17 264.11 L 72.61 262.42 L 70.11 260.66 L 67.65 258.83 L 65.26 256.92 L 62.92 254.95 L 60.64 252.90 L 58.43 250.78 L 56.28 248.60 L 54.19 246.36 L 52.17 244.06 L 50.23 241.69 L 48.35 239.27 L 46.55 236.79 L 44.83 234.27 L 43.18 231.69 L 41.61 229.06 L 40.11 226.38 L 38.70 223.66 L 37.37 220.91 L 36.13 218.11 L 34.97 215.27 L 33.89 212.41 L 32.90 209.51 L 32.00 206.58 L 31.19 203.63 L 30.47 200.65 L 29.83 197.66 L 29.29 194.64 L 28.83 191.62 L 28.47 188.58 L 28.20 185.53 L 28.02 182.47 L 27.93 179.41 L 27.93 176.35 L 28.03 173.28 L 28.22 170.23 L 28.50 167.18 L 28.87 164.14 L 29.33 161.11 L 29.88 158.10 L 30.52 155.10 L 31.25 152.13 L 32.07 149.18 L 32.98 146.26 L 33.98 143.36 L 35.06 140.50 L 36.23 137.66 L 37.48 134.87 L 38.81 132.11 L 40.23 129.40 L 41.73 126.73 L 43.31 124.10 L 44.96 121.53 L 46.70 119.00 L 48.50 116.53 L 50.38 114.11 L 52.33 111.75 L 54.36 109.45 L 56.45 107.22 L 58.60 105.04 L 60.82 102.93 L 63.11 100.89 L 65.45 98.92 L 67.85 97.02 L 70.31 95.19 L 72.82 93.44 L 75.38 91.76 L 77.99 90.16 L 80.65 88.64 L 83.35 87.20 L 86.10 85.84 L 88.88 84.57 L 91.70 83.38 L 94.56 82.27 L 97.45 81.25 L 100.36 80.32 L 103.31 79.47 L 106.27 78.72 L 109.26 78.05 L 112.27 77.47 L 115.29 76.99 L 118.33 76.59 L 121.38 76.28 L 124.43 76.07 L 127.49 75.95 L 130.55 75.92 L 133.61 75.98 L 136.67 76.14 L 139.73 76.38 L 142.77 76.72 L 145.80 77.15 L 148.82 77.67 L 151.82 78.28 L 154.80 78.98 " stroke="#F3EAD6" stroke-width="7.54"/><path d="M 201.79 124.86 L 203.35 127.04 L 204.85 129.26 L 206.28 131.53 L 207.64 133.84 L 208.93 136.18 L 210.15 138.57 L 211.29 140.99 L 212.37 143.45 L 213.37 145.93 L 214.29 148.45 L 215.14 150.99 L 215.91 153.56 L 216.60 156.14 L 217.22 158.75 L 217.76 161.38 L 218.22 164.02 L 218.60 166.67 L 218.90 169.33 L 219.12 172.00 L 219.26 174.68 L 219.32 177.36 L 219.30 180.04 L 219.20 182.71 L 219.01 185.39 L 218.75 188.05 L 218.41 190.71 L 217.99 193.36 L 217.49 195.99 L 216.91 198.61 L 216.25 201.20 L 215.52 203.78 L 214.71 206.33 L 213.82 208.86 L 212.86 211.36 L 211.82 213.83 L 210.71 216.27 L 209.52 218.67 L 208.27 221.04 L 206.94 223.37 L 205.54 225.66 L 204.08 227.90 L 202.55 230.10 L 200.95 232.25 L 199.30 234.36 L 197.57 236.41 L 195.79 238.41 L 193.95 240.36 L 192.05 242.25 L 190.09 244.08 L 188.09 245.85 L 186.02 247.57 L 183.91 249.21 L 181.75 250.80 L 179.55 252.32 L 177.29 253.77 L 175.00 255.16 L 172.66 256.47 L 170.29 257.72 L 167.88 258.89 L 165.44 259.99 L 162.96 261.01 L 160.46 261.97 L 157.93 262.84 L 155.37 263.64 L 152.79 264.36 L 150.19 265.01 L 147.57 265.57 L 144.93 266.06 L 142.29 266.47 L 139.63 266.80 L 136.96 267.05 L 134.29 267.22 L 131.61 267.31 L 128.93 267.31 L 126.25 267.24 L 123.57 267.09 L 120.90 266.86 L 118.24 266.54 L 115.59 266.15 L 112.96 265.68 L 110.33 265.13 L 107.73 264.50 L 105.14 263.79 L 102.58 263.01 L 100.04 262.15 L 97.53 261.21 L 95.05 260.20 L 92.60 259.11 L 90.19 257.96 L 87.81 256.73 L 85.46 255.42 L 83.16 254.05 L 80.90 252.61 L 78.68 251.11 L 76.51 249.54 L 74.39 247.90 L 72.32 246.20 L 70.30 244.44 L 68.34 242.62 L 66.43 240.74 L 64.57 238.80 L 62.78 236.81 L 61.04 234.77 L 59.37 232.68 L 57.76 230.53 L 56.22 228.34 L 54.74 226.11 L 53.33 223.83 L 51.99 221.51 L 50.72 219.15 L 49.53 216.75 L 48.40 214.32 L 47.35 211.86 L 46.37 209.36 L 45.46 206.84 L 44.64 204.29 L 43.89 201.72 L 43.21 199.13 L 42.62 196.51 L 42.10 193.88 L 41.67 191.24 L 41.31 188.59 L 41.03 185.92 L 40.83 183.25 L 40.72 180.57 L 40.68 177.89 L 40.72 175.21 L 40.85 172.54 L 41.05 169.86 L 41.34 167.20 L 41.70 164.55 L 42.14 161.90 L 42.66 159.27 L 43.27 156.66 L 43.94 154.07 L 44.70 151.50 L 45.53 148.95 L 46.44 146.43 L 47.43 143.94 L 48.49 141.48 L 49.62 139.05 L 50.82 136.66 L 52.10 134.30 L 53.45 131.98 L 54.86 129.71 L 56.34 127.48 L 57.89 125.29 L 59.50 123.15 L 61.18 121.06 L 62.92 119.02 L 64.72 117.04 L 66.58 115.11 L 68.49 113.23 L 70.46 111.42 L 72.49 109.66 L 74.56 107.97 L 76.69 106.33 L 78.86 104.77 L 81.08 103.27 L 83.35 101.83 L 85.65 100.47 L 88.00 99.17 L 90.38 97.95 L 92.80 96.80 L 95.25 95.72 L 97.74 94.71 L 100.25 93.78 L 102.79 92.93 L 105.35 92.15 L 107.94 91.45 L 110.54 90.82 L 113.17 90.28 L 115.81 89.81 L 118.46 89.43 L 121.12 89.12 L 123.79 88.90 L 126.47 88.75 L 129.14 88.68 L 131.82 88.70 L 134.50 88.79 L 137.17 88.97 L 139.84 89.22 L 142.50 89.56 L 145.15 89.97 " stroke="#F3EAD6" stroke-width="2.32"/></g><path d="M 130.21 167.24 L 130.78 167.15 L 131.34 167.07 L 131.91 167.02 L 132.49 166.99 L 133.07 167.00 L 133.66 167.03 L 134.25 167.10 L 134.85 167.19 L 135.45 167.32 L 136.04 167.48 L 136.64 167.68 L 137.23 167.90 L 137.81 168.16 L 138.38 168.45 L 138.95 168.78 L 139.50 169.14 L 140.04 169.53 L 140.57 169.95 L 141.08 170.41 L 141.56 170.89 L 142.03 171.40 L 142.48 171.95 L 142.90 172.52 L 143.29 173.12 L 143.66 173.74 L 144.00 174.39 L 144.30 175.06 L 144.58 175.76 L 144.82 176.47 L 145.02 177.20 L 145.19 177.95 L 145.32 178.71 L 145.41 179.49 L 145.47 180.28 L 145.48 181.07 L 145.45 181.88 L 145.38 182.68 L 145.26 183.49 L 145.11 184.30 L 144.91 185.11 L 144.67 185.92 L 144.38 186.72 L 144.05 187.50 L 143.68 188.28 L 143.27 189.05 L 142.81 189.79 L 142.31 190.52 L 141.77 191.23 L 141.19 191.92 L 140.57 192.58 L 139.91 193.21 L 139.21 193.82 L 138.48 194.39 L 137.72 194.93 L 136.92 195.43 L 136.09 195.89 L 135.23 196.32 L 134.34 196.70 L 133.43 197.04 L 132.50 197.34 L 131.54 197.59 L 130.57 197.79 L 129.58 197.94 L 128.57 198.05 L 127.56 198.10 L 126.53 198.10 L 125.50 198.05 L 124.47 197.94 L 123.43 197.79 L 122.40 197.57 L 121.37 197.31 L 120.35 196.99 L 119.34 196.61 L 118.34 196.18 L 117.36 195.70 L 116.40 195.17 L 115.46 194.58 L 114.55 193.94 L 113.66 193.26 L 112.81 192.52 L 111.99 191.73 L 111.20 190.90 L 110.45 190.03 L 109.74 189.11 L 109.08 188.15 L 108.46 187.15 L 107.89 186.12 L 107.37 185.05 L 106.90 183.95 L 106.48 182.82 L 106.12 181.66 L 105.82 180.48 L 105.57 179.28 L 105.39 178.06 L 105.27 176.83 L 105.21 175.58 L 105.21 174.32 L 105.27 173.06 L 105.41 171.79 L 105.60 170.53 L 105.86 169.27 L 106.19 168.02 L 106.58 166.78 L 107.04 165.55 L 107.56 164.34 L 108.14 163.15 L 108.79 161.99 L 109.50 160.85 L 110.27 159.75 L 111.10 158.68 L 111.99 157.65 L 112.93 156.65 L 113.93 155.71 L 114.98 154.80 L 116.08 153.95 L 117.23 153.15 L 118.42 152.41 L 119.66 151.72 L 120.94 151.10 L 122.25 150.53 L 123.60 150.03 L 124.98 149.60 L 126.38 149.23 L 127.81 148.93 L 129.26 148.71 L 130.73 148.56 L 132.21 148.48 L 133.70 148.48 L 135.19 148.55 L 136.69 148.70 L 138.19 148.92 L 139.68 149.22 L 141.16 149.60 L 142.62 150.05 L 144.07 150.58 L 145.50 151.19 L 146.90 151.87 L 148.28 152.62 L 149.61 153.45 L 150.92 154.35 L 152.18 155.31 L 153.39 156.34 L 154.56 157.44 L 155.68 158.60 L 156.74 159.82 L 157.75 161.10 L 158.69 162.44 L 159.57 163.82 L 160.38 165.26 L 161.12 166.74 L 161.79 168.26 L 162.38 169.83 L 162.90 171.42 L 163.34 173.05 L 163.70 174.71 L 163.97 176.39 L 164.16 178.09 L 164.26 179.80 L 164.28 181.53 L 164.22 183.26 L 164.06 184.99 L 163.81 186.72 L 163.48 188.44 L 163.06 190.15 L 162.55 191.85 L 161.96 193.53 L 161.28 195.18 L 160.51 196.80 L 159.66 198.38 L 158.72 199.93 L 157.71 201.44 L 156.62 202.90 L 155.44 204.30 L 154.20 205.66 L 152.88 206.95 L 151.50 208.18 L 150.04 209.34 L 148.53 210.44 L 146.95 211.46 L 145.32 212.40 L 143.64 213.27 L 141.91 214.05 L 140.14 214.75 L 138.32 215.36 L 136.47 215.88 L 134.59 216.30 L 132.68 216.64 L 130.75 216.88 L 128.80 217.02 L 126.84 217.06 L 124.87 217.01 L 122.90 216.85 L 120.94 216.60 L 118.98 216.24 L 117.03 215.79 L 115.11 215.23 L 113.20 214.58 L 111.32 213.83 L 109.48 212.99 L 107.67 212.05 L 105.91 211.01 L 104.20 209.89 L 102.53 208.67 L 100.93 207.37 L 99.38 205.98 L 97.91 204.52 L 96.50 202.97 L 95.17 201.35 L 93.91 199.66 L 92.74 197.90 L 91.66 196.08 L 90.66 194.20 L 89.75 192.27 L 88.95 190.28 L 88.23 188.25 L 87.62 186.18 L 87.12 184.08 L 86.72 181.94 L 86.42 179.78 L 86.23 177.60 L 86.15 175.40 L 86.19 173.20 L 86.33 170.99 L 86.59 168.79 L 86.95 166.59 L 87.43 164.41 L 88.02 162.25 L 88.72 160.11 L 89.53 158.00 L 90.44 155.93 L 91.46 153.90 L 92.59 151.92 L 93.82 149.99 L 95.15 148.11 L 96.57 146.30 L 98.09 144.56 L 99.70 142.89 L 101.40 141.30 L 103.18 139.80 L 105.04 138.37 L 106.98 137.04 L 108.99 135.81 L 111.06 134.67 L 113.19 133.64 L 115.38 132.71 L 117.63 131.88 L 119.91 131.17 L 122.24 130.58 L 124.60 130.10 L 126.99 129.73 L 129.41 129.49 L 131.84 129.37 L 134.28 129.37 L 136.72 129.49 L 139.17 129.74 L 141.60 130.11 L 144.02 130.60 L 146.43 131.21 L 148.80 131.95 L 151.14 132.81 L 153.45 133.79 L 155.70 134.88 L 157.91 136.09 L 160.06 137.42 L 162.15 138.85 L 164.17 140.39 L 166.11 142.04 L 167.98 143.79 L 169.76 145.63 L 171.45 147.57 L 173.05 149.59 L 174.55 151.70 L 175.94 153.89 L 177.23 156.15 L 178.40 158.48 L 179.46 160.87 L 180.40 163.32 L 181.22 165.82 L 181.92 168.37 L 182.49 170.95 L 182.93 173.57 L 183.23 176.22 L 183.41 178.88 L 183.45 181.56 L 183.36 184.24 L 183.13 186.93 L 182.77 189.60 L 182.27 192.27 L 181.64 194.91 L 180.87 197.52 L 179.98 200.10 L 178.95 202.64 L 177.79 205.13 L 176.50 207.57 L 175.09 209.94 L 173.56 212.25 L 171.91 214.48 L 170.14 216.64 L 168.27 218.71 L 166.29 220.69 L 164.20 222.57 L 162.02 224.35 L 159.74 226.02 L 157.38 227.58 L 154.94 229.02 L 152.42 230.35 L 149.83 231.55 L 147.17 232.62 L 144.46 233.56 L 141.70 234.36 L 138.89 235.02 L 136.05 235.55 L 133.17 235.93 L 130.27 236.17 L 127.36 236.27 L 124.44 236.22 L 121.51 236.02 L 118.59 235.67 L 115.69 235.18 L 112.81 234.54 L 109.95 233.75 L 107.13 232.82 L 104.35 231.75 L 101.63 230.54 L 98.96 229.19 L 96.35 227.70 L 93.82 226.08 L 91.36 224.33 L 88.99 222.45 L 86.71 220.45 L 84.53 218.34 L 82.45 216.11 L 80.48 213.78 L 78.63 211.34 L 76.89 208.81 L 75.28 206.19 L 73.80 203.49 L 72.45 200.70 L 71.25 197.85 L 70.18 194.93 L 69.26 191.95 L 68.49 188.93 L 67.86 185.86 L 67.40 182.76 L 67.08 179.62 L 66.93 176.48 L 66.93 173.31 L 67.09 170.15 L 67.41 166.99 L 67.89 163.84 L 68.52 160.71 L 69.32 157.61 L 70.27 154.55 L 71.38 151.53 L 72.64 148.57 L 74.05 145.66 L 75.60 142.82 L 77.30 140.06 L 79.14 137.37 L 81.12 134.78 L 83.23 132.29 L 85.47 129.89 L 87.83 127.61 L 90.31 125.44 L 92.90 123.40 L 95.60 121.48 L 98.39 119.70 L 101.28 118.05 L 104.25 116.55 L 107.30 115.19 L 110.42 113.99 L 113.61 112.94 L 116.85 112.05 L 120.14 111.33 L 123.47 110.76 L 127.33 110.29 L 135.75 108.04 L 140.19 106.44 L 144.13 105.27 L 147.90 104.37 L 151.51 103.67 L 155.00 103.14 L 158.37 102.72 L 161.66 102.35 L 164.88 101.97 L 167.98 101.55 L 167.08 94.28 L 164.05 94.61 L 160.91 94.88 L 157.57 95.17 L 154.03 95.53 L 150.28 96.01 L 146.32 96.67 L 142.15 97.58 L 137.75 98.79 L 133.44 100.26 L 125.56 102.36 L 122.30 102.74 L 118.57 103.38 L 114.89 104.21 L 111.26 105.22 L 107.70 106.41 L 104.20 107.77 L 100.79 109.30 L 97.47 110.99 L 94.24 112.85 L 91.11 114.86 L 88.10 117.02 L 85.20 119.32 L 82.43 121.76 L 79.80 124.33 L 77.30 127.02 L 74.94 129.83 L 72.73 132.74 L 70.67 135.76 L 68.78 138.87 L 67.04 142.06 L 65.47 145.33 L 64.07 148.66 L 62.84 152.05 L 61.79 155.49 L 60.91 158.98 L 60.21 162.49 L 59.68 166.03 L 59.34 169.58 L 59.17 173.13 L 59.18 176.68 L 59.37 180.22 L 59.73 183.73 L 60.27 187.21 L 60.98 190.66 L 61.87 194.05 L 62.91 197.39 L 64.12 200.67 L 65.49 203.87 L 67.02 206.99 L 68.69 210.03 L 70.52 212.97 L 72.48 215.81 L 74.57 218.54 L 76.80 221.15 L 79.15 223.65 L 81.61 226.02 L 84.18 228.25 L 86.86 230.35 L 89.63 232.31 L 92.48 234.12 L 95.42 235.78 L 98.43 237.29 L 101.51 238.65 L 104.64 239.84 L 107.81 240.87 L 111.03 241.75 L 114.28 242.45 L 117.56 242.99 L 120.84 243.37 L 124.14 243.58 L 127.43 243.62 L 130.71 243.50 L 133.97 243.22 L 137.21 242.78 L 140.41 242.17 L 143.57 241.41 L 146.68 240.49 L 149.74 239.42 L 152.72 238.20 L 155.64 236.83 L 158.47 235.33 L 161.22 233.69 L 163.88 231.92 L 166.43 230.02 L 168.89 228.00 L 171.23 225.87 L 173.46 223.63 L 175.56 221.28 L 177.54 218.84 L 179.39 216.31 L 181.11 213.70 L 182.69 211.01 L 184.13 208.26 L 185.42 205.44 L 186.57 202.57 L 187.58 199.65 L 188.43 196.69 L 189.13 193.71 L 189.68 190.70 L 190.07 187.67 L 190.31 184.64 L 190.40 181.61 L 190.34 178.58 L 190.13 175.57 L 189.77 172.58 L 189.26 169.62 L 188.60 166.70 L 187.80 163.83 L 186.86 161.00 L 185.78 158.24 L 184.57 155.54 L 183.23 152.91 L 181.76 150.36 L 180.17 147.89 L 178.46 145.51 L 176.65 143.23 L 174.72 141.05 L 172.69 138.97 L 170.57 137.00 L 168.36 135.15 L 166.07 133.42 L 163.69 131.80 L 161.25 130.32 L 158.74 128.96 L 156.18 127.73 L 153.56 126.64 L 150.90 125.68 L 148.21 124.86 L 145.48 124.17 L 142.73 123.63 L 139.97 123.22 L 137.20 122.96 L 134.42 122.83 L 131.65 122.85 L 128.90 123.00 L 126.16 123.29 L 123.45 123.72 L 120.77 124.28 L 118.14 124.97 L 115.54 125.79 L 113.01 126.74 L 110.52 127.80 L 108.11 128.99 L 105.76 130.30 L 103.49 131.71 L 101.30 133.24 L 99.19 134.87 L 97.18 136.59 L 95.26 138.41 L 93.44 140.31 L 91.72 142.30 L 90.11 144.37 L 88.62 146.51 L 87.23 148.71 L 85.96 150.97 L 84.81 153.29 L 83.78 155.65 L 82.88 158.05 L 82.10 160.49 L 81.44 162.96 L 80.91 165.45 L 80.51 167.95 L 80.23 170.46 L 80.09 172.98 L 80.06 175.49 L 80.17 177.99 L 80.40 180.47 L 80.75 182.93 L 81.22 185.36 L 81.81 187.76 L 82.52 190.11 L 83.35 192.42 L 84.29 194.68 L 85.33 196.88 L 86.48 199.02 L 87.73 201.09 L 89.08 203.08 L 90.53 205.00 L 92.06 206.84 L 93.68 208.60 L 95.37 210.26 L 97.15 211.83 L 98.99 213.30 L 100.90 214.68 L 102.87 215.95 L 104.89 217.12 L 106.96 218.18 L 109.07 219.14 L 111.22 219.98 L 113.41 220.71 L 115.62 221.33 L 117.84 221.83 L 120.09 222.22 L 122.34 222.49 L 124.59 222.66 L 126.85 222.70 L 129.09 222.64 L 131.32 222.46 L 133.52 222.17 L 135.71 221.77 L 137.86 221.27 L 139.97 220.66 L 142.05 219.95 L 144.08 219.13 L 146.05 218.22 L 147.98 217.22 L 149.84 216.12 L 151.63 214.94 L 153.36 213.67 L 155.02 212.32 L 156.60 210.89 L 158.10 209.40 L 159.51 207.83 L 160.85 206.21 L 162.09 204.52 L 163.24 202.79 L 164.30 201.00 L 165.26 199.17 L 166.13 197.30 L 166.90 195.40 L 167.57 193.47 L 168.13 191.51 L 168.60 189.54 L 168.97 187.56 L 169.23 185.56 L 169.39 183.57 L 169.46 181.58 L 169.42 179.59 L 169.28 177.62 L 169.05 175.67 L 168.71 173.74 L 168.29 171.83 L 167.76 169.96 L 167.15 168.12 L 166.45 166.33 L 165.67 164.58 L 164.80 162.88 L 163.85 161.23 L 162.82 159.64 L 161.72 158.11 L 160.54 156.65 L 159.31 155.25 L 158.00 153.92 L 156.64 152.67 L 155.23 151.49 L 153.76 150.39 L 152.25 149.37 L 150.69 148.43 L 149.09 147.57 L 147.47 146.80 L 145.81 146.12 L 144.13 145.52 L 142.43 145.01 L 140.71 144.59 L 138.98 144.26 L 137.25 144.02 L 135.51 143.87 L 133.78 143.80 L 132.05 143.82 L 130.34 143.93 L 128.64 144.12 L 126.96 144.40 L 125.31 144.76 L 123.69 145.20 L 122.09 145.72 L 120.54 146.32 L 119.02 146.99 L 117.55 147.74 L 116.12 148.55 L 114.74 149.43 L 113.42 150.37 L 112.15 151.38 L 110.95 152.44 L 109.80 153.56 L 108.71 154.72 L 107.70 155.93 L 106.75 157.19 L 105.86 158.49 L 105.05 159.82 L 104.32 161.18 L 103.65 162.57 L 103.06 163.99 L 102.55 165.42 L 102.11 166.87 L 101.75 168.34 L 101.47 169.81 L 101.26 171.29 L 101.12 172.76 L 101.06 174.24 L 101.08 175.70 L 101.17 177.16 L 101.33 178.60 L 101.57 180.02 L 101.87 181.42 L 102.25 182.80 L 102.69 184.14 L 103.19 185.45 L 103.76 186.73 L 104.39 187.97 L 105.07 189.17 L 105.81 190.33 L 106.61 191.44 L 107.45 192.50 L 108.34 193.52 L 109.28 194.48 L 110.26 195.38 L 111.27 196.23 L 112.33 197.02 L 113.41 197.75 L 114.52 198.42 L 115.66 199.03 L 116.82 199.58 L 118.00 200.06 L 119.19 200.48 L 120.39 200.84 L 121.61 201.13 L 122.82 201.36 L 124.04 201.52 L 125.26 201.62 L 126.48 201.66 L 127.68 201.64 L 128.88 201.56 L 130.06 201.41 L 131.22 201.21 L 132.37 200.95 L 133.49 200.64 L 134.58 200.27 L 135.65 199.84 L 136.68 199.37 L 137.69 198.85 L 138.65 198.28 L 139.58 197.67 L 140.48 197.02 L 141.32 196.32 L 142.13 195.59 L 142.89 194.82 L 143.61 194.03 L 144.28 193.20 L 144.90 192.35 L 145.47 191.47 L 145.99 190.57 L 146.46 189.66 L 146.88 188.73 L 147.25 187.78 L 147.56 186.83 L 147.82 185.87 L 148.04 184.90 L 148.20 183.94 L 148.31 182.97 L 148.36 182.01 L 148.37 181.06 L 148.33 180.11 L 148.24 179.18 L 148.11 178.26 L 147.92 177.36 L 147.70 176.48 L 147.43 175.62 L 147.12 174.78 L 146.77 173.96 L 146.38 173.18 L 145.95 172.42 L 145.49 171.69 L 145.00 171.00 L 144.47 170.34 L 143.92 169.71 L 143.34 169.12 L 142.74 168.56 L 142.12 168.05 L 141.47 167.57 L 140.81 167.13 L 140.14 166.73 L 139.45 166.37 L 138.75 166.06 L 138.04 165.78 L 137.33 165.54 L 136.61 165.35 L 135.90 165.19 L 135.18 165.08 L 134.47 165.01 L 133.76 164.97 L 133.07 164.97 L 132.38 165.01 L 131.70 165.09 L 131.04 165.21 L 130.39 165.36 L 129.79 165.56 Z" fill="#F3EAD6"/><path d="M 168.12 101.53 L 171.18 100.98 L 174.28 100.23 L 177.34 99.22 L 180.37 97.90 L 183.34 96.20 L 186.24 94.07 L 189.06 91.50 L 191.80 88.42 L 194.49 84.82 L 197.15 80.62 L 199.79 75.79 L 202.43 70.31 L 205.62 67.05 L 208.67 63.77 L 211.69 60.48 L 213.48 56.62 L 213.72 52.04 L 213.38 47.21 L 213.54 42.60 L 214.50 38.36 L 216.28 34.50 L 214.91 33.87 L 213.13 37.73 L 210.55 41.22 L 207.15 44.34 L 203.26 47.23 L 199.94 50.39 L 198.18 54.26 L 197.64 58.69 L 197.13 63.14 L 196.77 67.61 L 194.16 72.86 L 191.62 77.32 L 189.14 81.08 L 186.71 84.20 L 184.33 86.74 L 181.98 88.78 L 179.65 90.38 L 177.31 91.63 L 174.91 92.60 L 172.42 93.33 L 169.79 93.88 L 166.94 94.30 Z" fill="#F3EAD6"/></g></svg>